<svg xmlns:xlink="http://www.w2.org/1999/xlink" width="21" height="16" viewBox="0 0 21 16" xmlns="http://www.w3.org/2000/svg"><path d="M8.078 11.047c.13.156.378.39.742.703l.547.43-3.789 2.851c-.599.443-1.224.664-1.875.664-.495 0-.957-.104-1.387-.312a2.865 2.865 0 0 1-1.074-.899 3.12 3.12 0 0 1-.625-1.875c0-.494.104-.957.313-1.386.208-.43.507-.788.898-1.075l2.54-1.953-2.54-1.953A3.206 3.206 0 0 1 .93 5.13a3.052 3.052 0 0 1-.313-1.35c0-.677.222-1.302.664-1.875.287-.39.645-.69 1.074-.898.43-.209.88-.313 1.348-.313.703 0 1.341.222 1.914.664L9.29 4.211l-.469.351c-.182.105-.442.365-.78.782l-3.44-2.696c-.339-.208-.638-.312-.899-.312-.443 0-.82.195-1.133.586-.182.208-.273.495-.273.86 0 .494.17.872.508 1.132l4.258 3.281-4.22 3.242c-.39.26-.585.652-.585 1.172 0 .313.078.58.234.801.156.222.352.384.586.488.182.105.39.157.625.157.313 0 .612-.104.899-.313l3.476-2.695zm11.094-.899c.39.313.69.684.898 1.114.209.43.313.879.313 1.347 0 .677-.222 1.302-.664 1.875-.287.391-.645.69-1.074.899a3.06 3.06 0 0 1-1.348.312 3.055 3.055 0 0 1-1.914-.664l-4.844-3.789-.86-.625a.775.775 0 0 1-.273-.234 1.766 1.766 0 0 1-.156-.235 2.956 2.956 0 0 1-.742-1.992c0-.312.058-.599.176-.86.117-.26.293-.611.527-1.054.078-.13.247-.3.508-.508l5.703-4.375c.573-.442 1.198-.664 1.875-.664.495 0 .957.104 1.387.313.43.208.787.508 1.074.898a3.12 3.12 0 0 1 .625 1.875c0 .495-.104.957-.313 1.387a2.85 2.85 0 0 1-.898 1.074l-2.54 1.953 2.54 1.953zm-.742 3.32c.208-.286.312-.572.312-.859 0-.52-.182-.911-.547-1.171l-4.258-3.282 4.22-3.203c.39-.286.585-.677.585-1.172 0-.52-.273-.95-.82-1.289a1.237 1.237 0 0 0-.625-.156c-.313 0-.6.104-.86.312l-5.742 4.375-.234.235c-.208.208-.313.508-.313.898s.13.716.391.977l.156.156 5.703 4.453c.339.209.638.313.899.313.495 0 .872-.196 1.133-.586z" fill-rule="evenodd" opacity=".86"></path></svg>