<svg xmlns:xlink="http://www.w3.org/1999/xlink" width="24" height="25" viewBox="0 0 24 25" fill="none" xmlns="http://www.w3.org/2000/svg"><path d="M4.5 13.5264V19.94C4.5 20.1389 4.57902 20.3297 4.71967 20.4703C4.86032 20.611 5.05109 20.69 5.25 20.69H18.75C18.9489 20.69 19.1397 20.611 19.2803 20.4703C19.421 20.3297 19.5 20.1389 19.5 19.94V13.5265" stroke="#000000" stroke-width="1.0625px" stroke-linecap="round" stroke-linejoin="round" fill="none"></path><path d="M5.06573 4.18945H18.9343C19.0973 4.18945 19.2558 4.24254 19.3859 4.34069C19.516 4.43884 19.6106 4.5767 19.6554 4.73341L21 9.43945H3L4.34458 4.73341C4.38936 4.5767 4.48396 4.43884 4.61408 4.34069C4.7442 4.24254 4.90274 4.18945 5.06573 4.18945Z" stroke="#000000" stroke-width="1.0625px" stroke-linecap="round" stroke-linejoin="round" fill="none"></path><path d="M9 9.43945V10.9395C9 11.7351 8.68393 12.4982 8.12132 13.0608C7.55871 13.6234 6.79565 13.9395 6 13.9395C5.20435 13.9395 4.44129 13.6234 3.87868 13.0608C3.31607 12.4982 3 11.7351 3 10.9395V9.43945" stroke="#000000" stroke-width="1.0625px" stroke-linecap="round" stroke-linejoin="round" fill="none"></path><path d="M15 9.43945V10.9395C15 11.7351 14.6839 12.4982 14.1213 13.0608C13.5587 13.6234 12.7956 13.9395 12 13.9395C11.2044 13.9395 10.4413 13.6234 9.87868 13.0608C9.31607 12.4982 9 11.7351 9 10.9395V9.43945" stroke="#000000" stroke-width="1.0625px" stroke-linecap="round" stroke-linejoin="round" fill="none"></path><path d="M21 9.43945V10.9395C21 11.7351 20.6839 12.4982 20.1213 13.0608C19.5587 13.6234 18.7956 13.9395 18 13.9395C17.2044 13.9395 16.4413 13.6234 15.8787 13.0608C15.3161 12.4982 15 11.7351 15 10.9395V9.43945" stroke="#000000" stroke-width="1.0625px" stroke-linecap="round" stroke-linejoin="round" fill="none"></path></svg>