<svg xmlns:xlink="http://www.w3.org/1999/xlink" width="19" height="13" viewBox="0 0 19 13" xmlns="http://www.w3.org/2000/svg"><path d="M12.82 7.32c1.094 0 2.312.248 3.653.742 1.34.495 2.076 1.224 2.207 2.188v2.07h-5v-2.07c-.026-.625-.183-1.172-.47-1.64a4.422 4.422 0 0 0-1.17-1.25 8.35 8.35 0 0 1 .78-.04zm-6.64 0c1.093 0 2.304.248 3.633.742C11.14 8.557 11.87 9.287 12 10.25v2.07H.32v-2.07c.13-.964.866-1.693 2.207-2.188 1.341-.494 2.559-.742 3.653-.742zm0-1.64c-.73-.026-1.328-.274-1.797-.742-.469-.47-.703-1.062-.703-1.778s.234-1.308.703-1.777C4.852.914 5.444.68 6.16.68s1.309.234 1.777.703c.47.469.704 1.061.704 1.777s-.235 1.309-.704 1.777c-.468.47-1.054.717-1.757.743zm6.64 0c-.703-.026-1.289-.274-1.758-.742-.468-.47-.703-1.062-.703-1.778s.235-1.308.704-1.777C11.53.914 12.123.68 12.84.68c.716 0 1.308.234 1.777.703.469.469.703 1.061.703 1.777s-.234 1.309-.703 1.777c-.469.47-1.068.717-1.797.743z" fill="#FFFFFF" fill-rule="evenodd" opacity=".87"></path></svg>