<svg xmlns:xlink="http://www.w3.org/1999/xlink" width="17" height="17" viewBox="-1 0 17 18" xmlns="http://www.w3.org/2000/svg"><path d="M13.398 3.61a.73.73 0 0 1 .567.234.784.784 0 0 1 .215.547V15.25c0 .365-.104.716-.313 1.055a2.146 2.146 0 0 1-.82.78 2.35 2.35 0 0 1-1.133.274H3.086a2.22 2.22 0 0 1-1.133-.293 2.427 2.427 0 0 1-.82-.761A1.985 1.985 0 0 1 .82 15.25V4.39c0-.208.072-.39.215-.546a.688.688 0 0 1 .528-.235h3.046c0-.494.13-.963.391-1.406.26-.443.612-.807 1.055-1.094C6.47.85 6.953.72 7.5.72a2.8 2.8 0 0 1 1.445.39c.443.26.795.612 1.055 1.055.26.443.39.925.39 1.445h3.008zM7.5 1.968a1.62 1.62 0 0 0-1.191.488c-.326.326-.489.71-.489 1.152h3.36c0-.442-.163-.826-.489-1.152A1.621 1.621 0 0 0 7.5 1.969zm5.156 3.203h-2.265v1.133a.63.63 0 0 1-.176.43.537.537 0 0 1-.41.195.577.577 0 0 1-.45-.196.629.629 0 0 1-.175-.43v-1.13H5.82v1.133a.63.63 0 0 1-.175.43.577.577 0 0 1-.45.195.537.537 0 0 1-.41-.196.629.629 0 0 1-.176-.43V5.173H2.344V15.25c0 .156.071.293.215.41a.806.806 0 0 0 .527.176h8.828a.806.806 0 0 0 .527-.176c.144-.117.215-.254.215-.41V5.172z"  fill-rule="evenodd" opacity=".87"></path></svg>