<svg xmlns:xlink="http://www.w3.org/1999/xlink" width="26" height="24" viewBox="0 0 26 24" fill="none" xmlns="http://www.w3.org/2000/svg"><path d="M13.8437 16.4503L11.9963 21.3402C11.9419 21.4842 11.8436 21.6084 11.7146 21.6962C11.5855 21.7839 11.432 21.831 11.2747 21.831C11.1174 21.831 10.9639 21.7839 10.8348 21.6962C10.7058 21.6084 10.6075 21.4842 10.5531 21.3402L8.70576 16.4503C8.66729 16.3484 8.60662 16.2559 8.52793 16.1792C8.44924 16.1025 8.35442 16.0433 8.25 16.0058L3.23585 14.2042C3.08824 14.1512 2.96086 14.0553 2.87088 13.9294C2.78091 13.8036 2.73267 13.6539 2.73267 13.5004C2.73267 13.347 2.78091 13.1973 2.87088 13.0715C2.96086 12.9456 3.08824 12.8497 3.23585 12.7967L8.25 10.9951C8.35442 10.9576 8.44924 10.8984 8.52793 10.8217C8.60662 10.7449 8.66729 10.6525 8.70576 10.5506L10.5531 5.66064C10.6075 5.51669 10.7058 5.39246 10.8348 5.30471C10.9639 5.21697 11.1174 5.16992 11.2747 5.16992C11.432 5.16992 11.5855 5.21697 11.7146 5.30471C11.8436 5.39246 11.9419 5.51669 11.9963 5.66064L13.8437 10.5506C13.8821 10.6525 13.9428 10.7449 14.0215 10.8217C14.1002 10.8984 14.195 10.9576 14.2994 10.9951L19.3136 12.7967C19.4612 12.8497 19.5886 12.9456 19.6785 13.0715C19.7685 13.1973 19.8167 13.347 19.8167 13.5004C19.8167 13.6539 19.7685 13.8036 19.6785 13.9294C19.5886 14.0553 19.4612 14.1512 19.3136 14.2042L14.2994 16.0058C14.195 16.0433 14.1002 16.1025 14.0215 16.1792C13.9428 16.2559 13.8821 16.3484 13.8437 16.4503V16.4503Z" stroke="#000000" stroke-width="1.26px" stroke-linecap="round" stroke-linejoin="round" fill="none"></path><path d="M17.4268 1.5V6" stroke="#000000" stroke-width="1.26px" stroke-linecap="round" stroke-linejoin="round" fill="none"></path><path d="M19.7339 3.75H15.1196" stroke="#000000" stroke-width="1.26px" stroke-linecap="round" stroke-linejoin="round" fill="none"></path><path d="M22.0411 6.75V9.75" stroke="#000000" stroke-width="1.26px" stroke-linecap="round" stroke-linejoin="round" fill="none"></path><path d="M23.5791 8.25H20.5029" stroke="#000000" stroke-width="1.26px" stroke-linecap="round" stroke-linejoin="round" fill="none"></path></svg>